<svg xmlns="http://www.w3.org/2000/svg" viewBox="0 0 100 125" x="0px" y="0px"><path d="M90.26,73.94h-.02c-6.31,.1-23.29,.2-26.14-.52-3.03-.77-5.52-2.21-7.7-3.48-1.87-1.09-3.48-2.03-5.1-2.37-1.48-.32-3.9-.45-6.62-.52-1.58-.04-12.36-.24-13.18-.25-1.93-.04-3.41-.06-4.77-.3-.74-.13-1.45-.32-2.16-.61-.52-.21-1.04-.47-1.59-.8h-.01c-3.19-1.85-1.6-7.67,5.79-7.78,.14-.01,.27-.01,.39-.01,0,0,6.11-.06,7.09-.06,3.88-.04,8.23-.13,11.19-.43,.05,0,.09-.01,.14-.01,4.47-.46,5.68-2.17,5.92-3.52,.06-.34,.06-.68-.01-1.02-.01-.11-.03-.22-.06-.33-.14-.57-.43-1.15-.86-1.72-.1-.13-.2-.26-.31-.38-1.05-1.2-2.68-2.42-4.85-3.47l12.24-11.93c.2,.13,.36,.24,.48,.33,1.56,1.17,7.37,6.43,11.09,10.72,4.01,4.61,17.9,11.49,18.49,11.78,.62,.31,1.37,.05,1.68-.56,.3-.62,.05-1.37-.57-1.68-.14-.07-14.03-6.95-17.71-11.18-4.01-4.61-9.94-9.92-11.48-11.08-.05-.03-.1-.07-.15-.11l4.46-4.35c.62-.61,.64-1.6,.03-2.22l-3.81-3.91c-.61-.62-1.6-.63-2.22-.03l-8.78,8.56c-.89,.17-1.83,.44-2.81,.82-2.89,1.11-5.93,1.93-8.62,2.65-4.7,1.26-8.42,2.25-10.24,4.31-3.12,3.51-9.23,11.48-11.89,15.51-2.18,3.33-5.56,9.25-3.62,11.61,.21,.25,.43,.48,.68,.67l-.5,.49c-.12,.11-.22,.24-.29,.39l-5.29,10c-.15,.3-.1,.67,.14,.92,.23,.24,.6,.31,.91,.15l10.13-5.03c.15-.07,.29-.16,.4-.28l3.14-3.06c.24,.88,.62,1.67,1.22,2.23,.58,.56,1.32,.83,2.14,.81,1.85-.06,3.3-1.19,4.29-2.33,.25,.92,.68,1.89,1.41,2.59,.69,.66,1.57,1.01,2.55,1.01,.08,0,.16,0,.24,0,1.73-.09,2.81-1.05,3.49-2.2,.12,.16,.25,.3,.39,.43,.44,.4,1.22,.82,2.39,.59,1.82-.36,2.7-1.84,3.06-3.42,2.62,.06,5,.19,6.31,.47,1.23,.26,2.68,1.1,4.36,2.08,2.22,1.28,4.97,2.89,8.34,3.74,2.17,.55,10.23,.68,16.98,.68,4.74,0,8.85-.06,9.82-.08,.69-.01,1.24-.58,1.23-1.27-.01-.68-.57-1.23-1.25-1.23Zm-39.24-21.08c-.07,.4-.93,1.17-3.71,1.46-2.23,.23-5.37,.33-8.48,.39l6.66-6.49c.21,.09,.42,.19,.63,.29,3.6,1.72,5.04,3.58,4.9,4.35Zm.33-19.64l7.98-7.78c.45-.44,1.03-.68,1.68-.67,.62,.01,1.21,.26,1.65,.71,.91,.93,.89,2.42-.04,3.33l-26.61,25.93c-.99,.01-6.79,.05-6.79,.05l22.13-21.57Zm-31.67,22.15c2.6-3.96,8.6-11.79,11.67-15.23,1.32-1.5,5.06-2.5,9.01-3.56,2.11-.56,4.44-1.19,6.77-1.96l-10.67,10.4c-.61,.31-1.2,.72-1.79,1.21-.26,.21-.97,.81-3.57,4.01l-4.95,4.82c-1.68,.32-3.63,1.07-5.31,2.85-1.09,1.15-1.76,2.67-1.88,4.16l-2.5,2.44c-.2-.13-.38-.29-.55-.49-.36-.65,.78-4.1,3.77-8.65Zm-.55,15.82c-.35,.35-2.23,1.42-2.99,1.42-.47,0-.93-.19-1.28-.54-.54-.56-.66-1.4-.3-2.08,.78-1.48,.9-1.8,1.28-2.16l3.44-3.36c.02,.05,.04,.09,.06,.13,.64,1.59,1.89,2.43,3.31,3.16l-3.52,3.43Zm7.45-.3c-.28-.01-.5-.07-.7-.26-.42-.4-.68-1.15-.82-1.95,1.38,.38,2.78,.51,4.37,.57-.7,.83-1.68,1.61-2.85,1.64Zm8.45,1.27c-.53,.03-.94-.12-1.29-.45-.58-.55-.88-1.53-1.03-2.39,.43,.01,3.57,.1,4.79,.12-.32,1.23-1,2.64-2.47,2.72Zm5.99-1.15c-.44,.09-.59-.05-.66-.11-.29-.25-.45-.82-.53-1.43,.84,.01,1.71,.02,2.57,.04-.23,.72-.64,1.35-1.38,1.5Z"/><text x="0" y="115" fill="#000000" font-size="5px" font-weight="bold" font-family="'Helvetica Neue', Helvetica, Arial-Unicode, Arial, Sans-serif">Created by Hothouse Design</text><text x="0" y="120" fill="#000000" font-size="5px" font-weight="bold" font-family="'Helvetica Neue', Helvetica, Arial-Unicode, Arial, Sans-serif">from the Noun Project</text></svg>